<?xml version="1.0" encoding="UTF-8"?>
<svg width="17px" height="17px" viewBox="0 0 17 17" version="1.1" xmlns="http://www.w3.org/2000/svg" xmlns:xlink="http://www.w3.org/1999/xlink">
    <!-- Generator: Sketch 47.1 (45422) - http://www.bohemiancoding.com/sketch -->
    <title>icon-pus-all</title>
    <desc>Created with Sketch.</desc>
    <defs></defs>
    <g id="Page-1" stroke="none" stroke-width="1" fill="none" fill-rule="evenodd">
        <g id="icon-pus-all" fill="#1E1E1E">
            <path d="M7,7 L7,4 L8,4 L8,7 L11,7 L11,8 L8,8 L8,11 L7,11 L7,8 L4,8 L4,7 L7,7 Z M16,2.26756439 C16.5978014,2.61337381 17,3.25971764 17,4 L17,15 C17,16.1045695 16.1045695,17 15,17 L4,17 C3.25971764,17 2.61337381,16.5978014 2.26756439,16 L15,16 C15.5522847,16 16,15.5522847 16,15 L16,2.26756439 Z M2,0 L13,0 C14.1045695,0 15,0.8954305 15,2 L15,13 C15,14.1045695 14.1045695,15 13,15 L2,15 C0.8954305,15 0,14.1045695 0,13 L0,2 C0,0.8954305 0.8954305,0 2,0 Z M2,1 L13,1 C13.5522847,1 14,1.44771525 14,2 L14,13 C14,13.5522847 13.5522847,14 13,14 L2,14 C1.44771525,14 1,13.5522847 1,13 L1,2 C1,1.44771525 1.44771525,1 2,1 Z" id="Combined-Shape"></path>
        </g>
    </g>
</svg>