<?xml version="1.0" encoding="UTF-8"?>
<svg width="14px" height="14px" viewBox="0 0 14 14" version="1.1" xmlns="http://www.w3.org/2000/svg" xmlns:xlink="http://www.w3.org/1999/xlink">
    <!-- Generator: Sketch 47.1 (45422) - http://www.bohemiancoding.com/sketch -->
    <title>icon-help</title>
    <desc>Created with Sketch.</desc>
    <defs></defs>
    <g id="Page-1" stroke="none" stroke-width="1" fill="none" fill-rule="evenodd">
        <g id="icon-help" transform="translate(-1.000000, -1.000000)">
            <rect id="Rectangle" x="0" y="0" width="16" height="16"></rect>
            <path d="M8,1 C11.8659932,1 15,4.13400675 15,8 C15,11.8659932 11.8659932,15 8,15 C4.13400675,15 1,11.8659932 1,8 C1,4.13400675 4.13400675,1 8,1 Z M8.794,9.084 C8.96184001,8.8319674 9.17636571,8.61438675 9.426,8.443 C9.90811187,8.09849998 10.3399222,7.68856627 10.709,7.225 C10.9028227,6.94673486 11.0074504,6.61611106 11.009,6.277 C10.9973813,5.64995865 10.6956036,5.06376368 10.192,4.69 C9.56295877,4.20865063 8.78297644,3.96721064 7.992,4.009 C7.22634424,3.97245553 6.4728976,4.21118885 5.868,4.682 C5.35794812,5.078925 5.04204227,5.67506991 5,6.32 L6.475,6.493 C6.54406963,6.10486077 6.74378406,5.75200841 7.041,5.493 C7.33353904,5.2681393 7.69524981,5.15216557 8.064,5.165 C8.42722103,5.14563858 8.78530768,5.25742976 9.073,5.48 C9.30813942,5.66082426 9.44625215,5.94037329 9.447,6.237 C9.44656377,6.44982163 9.37154882,6.6557589 9.235,6.819 C8.97416585,7.07623734 8.69327971,7.31231546 8.395,7.525 C8.02129171,7.78283196 7.70274767,8.11259474 7.458,8.495 C7.28949677,8.83641831 7.20905625,9.21455752 7.224,9.595 C7.224,9.638 7.224,9.758 7.23,9.956 L8.688,9.956 C8.65949464,9.66108342 8.69566896,9.3634984 8.794,9.084 L8.794,9.084 Z M8.831,10.9909752 L7.224,10.9909752 L7.224,11.984 L8.83,11.984 L8.831,10.9909752 Z" id="?" fill="#1E1E1E"></path>
        </g>
    </g>
</svg>