<?xml version="1.0" encoding="UTF-8"?>
<svg width="14px" height="14px" viewBox="0 0 14 14" version="1.1" xmlns="http://www.w3.org/2000/svg" xmlns:xlink="http://www.w3.org/1999/xlink">
    <!-- Generator: Sketch 47.1 (45422) - http://www.bohemiancoding.com/sketch -->
    <title>icon-analisys</title>
    <desc>Created with Sketch.</desc>
    <defs></defs>
    <g id="Page-1" stroke="none" stroke-width="1" fill="none" fill-rule="evenodd">
        <g id="icon-analisys" transform="translate(-1.000000, -1.000000)">
            <rect id="Rectangle" x="0" y="0" width="16" height="16"></rect>
            <path d="M1,1 L15,1 L15,2 L1,2 L1,1 Z M1,4 L5,4 L5,7 L1,7 L1,4 Z M6,4 L10,4 L10,7 L6,7 L6,4 Z M11,4 L15,4 L15,7 L11,7 L11,4 Z M11,8 L15,8 L15,11 L11,11 L11,8 Z M6,8 L10,8 L10,11 L6,11 L6,8 Z M1,8 L5,8 L5,11 L1,11 L1,8 Z M1,12 L5,12 L5,15 L1,15 L1,12 Z M6,12 L10,12 L10,15 L6,15 L6,12 Z M11,12 L15,12 L15,15 L11,15 L11,12 Z" id="Shape" fill="#000000" fill-rule="nonzero"></path>
        </g>
    </g>
</svg>