<?xml version="1.0" encoding="UTF-8"?>
<svg width="128px" height="128px" viewBox="0 0 128 128" version="1.1" xmlns="http://www.w3.org/2000/svg" xmlns:xlink="http://www.w3.org/1999/xlink">
        <g id="loader-light" fill-rule="nonzero" fill="#FFFFFF">
            <path d="M67.6,4 L67.6,36 L67.6,36 C67.6,38.209139 65.809139,40 63.6,40 L63.6,40 L63.6,40 C61.390861,40 59.6,38.209139 59.6,36 L59.6,4 L59.6,4 C59.6,1.790861 61.390861,4.05812251e-16 63.6,0 L63.6,0 L63.6,0 C65.809139,-4.05812251e-16 67.6,1.790861 67.6,4 Z" id="Shape"></path>
            <path d="M89.6535897,9.6948821 L89.6535897,41.6948821 L89.6535897,41.6948821 C89.6535897,43.9040211 87.8627287,45.6948821 85.6535897,45.6948821 L85.6535897,45.6948821 L85.6535897,45.6948821 C83.4444507,45.6948821 81.6535897,43.9040211 81.6535897,41.6948821 L81.6535897,9.6948821 L81.6535897,9.6948821 C81.6535897,7.4857431 83.4444507,5.6948821 85.6535897,5.6948821 L85.6535897,5.6948821 L85.6535897,5.6948821 C87.8627287,5.6948821 89.6535897,7.4857431 89.6535897,9.6948821 Z" id="Shape" fill-opacity="0.05" transform="translate(85.653590, 25.694882) rotate(30.000000) translate(-85.653590, -25.694882) "></path>
            <path d="M105.905118,25.6535898 L105.905118,57.6535898 L105.905118,57.6535898 C105.905118,59.8627288 104.114257,61.6535898 101.905118,61.6535898 L101.905118,61.6535898 L101.905118,61.6535898 C99.695979,61.6535898 97.905118,59.8627288 97.905118,57.6535898 L97.905118,25.6535898 L97.905118,25.6535898 C97.905118,23.4444508 99.695979,21.6535898 101.905118,21.6535898 L101.905118,21.6535898 L101.905118,21.6535898 C104.114257,21.6535898 105.905118,23.4444508 105.905118,25.6535898 Z" id="Shape" fill-opacity="0.1" transform="translate(101.905118, 41.653590) rotate(60.000000) translate(-101.905118, -41.653590) "></path>
            <path d="M112,47.6 L112,79.6 L112,79.6 C112,81.809139 110.209139,83.6 108,83.6 L108,83.6 L108,83.6 C105.790861,83.6 104,81.809139 104,79.6 L104,47.6 L104,47.6 C104,45.390861 105.790861,43.6 108,43.6 L108,43.6 L108,43.6 C110.209139,43.6 112,45.390861 112,47.6 Z" id="Shape" fill-opacity="0.2" transform="translate(108.000000, 63.600000) rotate(90.000000) translate(-108.000000, -63.600000) "></path>
            <path d="M106.305118,69.6535899 L106.305118,101.65359 L106.305118,101.65359 C106.305118,103.862729 104.514257,105.65359 102.305118,105.65359 L102.305118,105.65359 L102.305118,105.65359 C100.095979,105.65359 98.305118,103.862729 98.305118,101.65359 L98.305118,69.6535899 L98.305118,69.6535899 C98.305118,67.4444509 100.095979,65.6535899 102.305118,65.6535899 L102.305118,65.6535899 L102.305118,65.6535899 C104.514257,65.6535899 106.305118,67.4444509 106.305118,69.6535899 Z" id="Shape" fill-opacity="0.2" transform="translate(102.305118, 85.653590) rotate(120.000000) translate(-102.305118, -85.653590) "></path>
            <path d="M90.3464099,85.9051181 L90.3464099,117.905118 L90.3464099,117.905118 C90.3464099,120.114257 88.5555489,121.905118 86.3464099,121.905118 L86.3464099,121.905118 L86.3464099,121.905118 C84.1372709,121.905118 82.3464099,120.114257 82.3464099,117.905118 L82.3464099,85.9051181 L82.3464099,85.9051181 C82.3464099,83.6959791 84.1372709,81.9051181 86.3464099,81.9051181 L86.3464099,81.9051181 L86.3464099,81.9051181 C88.5555489,81.9051181 90.3464099,83.6959791 90.3464099,85.9051181 Z" id="Shape" fill-opacity="0.25" transform="translate(86.346410, 101.905118) rotate(150.000000) translate(-86.346410, -101.905118) "></path>
            <path d="M68.4,92 L68.4,124 L68.4,124 C68.4,126.209139 66.609139,128 64.4,128 L64.4,128 L64.4,128 C62.190861,128 60.4,126.209139 60.4,124 L60.4,92 L60.4,92 C60.4,89.790861 62.190861,88 64.4,88 L64.4,88 L64.4,88 C66.609139,88 68.4,89.790861 68.4,92 Z" id="Shape" fill-opacity="0.3" transform="translate(64.400000, 108.000000) rotate(180.000000) translate(-64.400000, -108.000000) "></path>
            <path d="M46.3464098,86.3051179 L46.3464098,118.305118 L46.3464098,118.305118 C46.3464098,120.514257 44.5555488,122.305118 42.3464098,122.305118 L42.3464098,122.305118 L42.3464098,122.305118 C40.1372708,122.305118 38.3464098,120.514257 38.3464098,118.305118 L38.3464098,86.3051179 L38.3464098,86.3051179 C38.3464098,84.0959789 40.1372708,82.3051179 42.3464098,82.3051179 L42.3464098,82.3051179 L42.3464098,82.3051179 C44.5555488,82.3051179 46.3464098,84.0959789 46.3464098,86.3051179 Z" id="Shape" fill-opacity="0.4" transform="translate(42.346410, 102.305118) rotate(-150.000000) translate(-42.346410, -102.305118) "></path>
            <path d="M30.094882,70.3464099 L30.094882,102.34641 L30.094882,102.34641 C30.094882,104.555549 28.304021,106.34641 26.094882,106.34641 L26.094882,106.34641 L26.094882,106.34641 C23.885743,106.34641 22.094882,104.555549 22.094882,102.34641 L22.094882,70.3464099 L22.094882,70.3464099 C22.094882,68.1372709 23.885743,66.3464099 26.094882,66.3464099 L26.094882,66.3464099 L26.094882,66.3464099 C28.304021,66.3464099 30.094882,68.1372709 30.094882,70.3464099 Z" id="Shape" fill-opacity="0.65" transform="translate(26.094882, 86.346410) rotate(-120.000000) translate(-26.094882, -86.346410) "></path>
            <path d="M24,48.4 L24,80.4 L24,80.4 C24,82.609139 22.209139,84.4 20,84.4 L20,84.4 L20,84.4 C17.790861,84.4 16,82.609139 16,80.4 L16,48.4 L16,48.4 C16,46.190861 17.790861,44.4 20,44.4 L20,44.4 L20,44.4 C22.209139,44.4 24,46.190861 24,48.4 Z" id="Shape" fill-opacity="0.7" transform="translate(20.000000, 64.400000) rotate(-90.000000) translate(-20.000000, -64.400000) "></path>
            <path d="M29.6948823,26.3464099 L29.6948823,58.3464099 L29.6948823,58.3464099 C29.6948823,60.5555489 27.9040213,62.3464099 25.6948823,62.3464099 L25.6948823,62.3464099 L25.6948823,62.3464099 C23.4857433,62.3464099 21.6948823,60.5555489 21.6948823,58.3464099 L21.6948823,26.3464099 L21.6948823,26.3464099 C21.6948823,24.1372709 23.4857433,22.3464099 25.6948823,22.3464099 L25.6948823,22.3464099 L25.6948823,22.3464099 C27.9040213,22.3464099 29.6948823,24.1372709 29.6948823,26.3464099 Z" id="Shape" fill-opacity="0.85" transform="translate(25.694882, 42.346410) rotate(-60.000000) translate(-25.694882, -42.346410) "></path>
            <path d="M45.6535899,10.0948823 L45.6535899,42.0948823 L45.6535899,42.0948823 C45.6535899,44.3040213 43.8627289,46.0948823 41.6535899,46.0948823 L41.6535899,46.0948823 L41.6535899,46.0948823 C39.4444509,46.0948823 37.6535899,44.3040213 37.6535899,42.0948823 L37.6535899,10.0948823 L37.6535899,10.0948823 C37.6535899,7.8857433 39.4444509,6.0948823 41.6535899,6.0948823 L41.6535899,6.0948823 L41.6535899,6.0948823 C43.8627289,6.0948823 45.6535899,7.8857433 45.6535899,10.0948823 Z" id="Shape" transform="translate(41.653590, 26.094882) rotate(-30.000000) translate(-41.653590, -26.094882) "></path>
            <animateTransform attributeName="transform" type="rotate" values="0 64 64;30 64 64;60 64 64;90 64 64;120 64 64;150 64 64;180 64 64;210 64 64;240 64 64;270 64 64;300 64 64;330 64 64" calcMode="discrete" dur="800ms" repeatCount="indefinite"></animateTransform>
        </g>
</svg>