<?xml version="1.0" encoding="UTF-8"?>
<svg width="128px" height="128px" viewBox="0 0 128 128" version="1.1" xmlns="http://www.w3.org/2000/svg" xmlns:xlink="http://www.w3.org/1999/xlink">
        <g id="35-(1)" fill-rule="nonzero">
            <path d="M67.6,4 L67.6,36 L67.6,36 C67.6,38.209139 65.809139,40 63.6,40 L63.6,40 L63.6,40 C61.390861,40 59.6,38.209139 59.6,36 L59.6,4 L59.6,4 C59.6,1.790861 61.390861,4.05812251e-16 63.6,0 L63.6,0 L63.6,0 C65.809139,-4.05812251e-16 67.6,1.790861 67.6,4 Z" id="Shape" fill="#000000"></path>
            <path d="M89.6535898,9.69488223 L89.6535898,41.6948822 L89.6535898,41.6948822 C89.6535898,43.9040212 87.8627288,45.6948822 85.6535898,45.6948822 L85.6535898,45.6948822 L85.6535898,45.6948822 C83.4444508,45.6948822 81.6535898,43.9040212 81.6535898,41.6948822 L81.6535898,9.69488223 L81.6535898,9.69488223 C81.6535898,7.48574323 83.4444508,5.69488223 85.6535898,5.69488223 L85.6535898,5.69488223 L85.6535898,5.69488223 C87.8627288,5.69488223 89.6535898,7.48574323 89.6535898,9.69488223 Z" id="Shape" fill-opacity="0.05" fill="000000" transform="translate(85.653590, 25.694882) rotate(30.000000) translate(-85.653590, -25.694882) "></path>
            <path d="M105.905118,25.6535898 L105.905118,57.6535898 L105.905118,57.6535898 C105.905118,59.8627288 104.114257,61.6535898 101.905118,61.6535898 L101.905118,61.6535898 L101.905118,61.6535898 C99.6959788,61.6535898 97.9051178,59.8627288 97.9051178,57.6535898 L97.9051178,25.6535898 L97.9051178,25.6535898 C97.9051178,23.4444508 99.6959788,21.6535898 101.905118,21.6535898 L101.905118,21.6535898 L101.905118,21.6535898 C104.114257,21.6535898 105.905118,23.4444508 105.905118,25.6535898 Z" id="Shape" fill-opacity="0.1" fill="000000" transform="translate(101.905118, 41.653590) rotate(60.000000) translate(-101.905118, -41.653590) "></path>
            <path d="M112,47.6 L112,79.6 L112,79.6 C112,81.809139 110.209139,83.6 108,83.6 L108,83.6 L108,83.6 C105.790861,83.6 104,81.809139 104,79.6 L104,47.6 L104,47.6 C104,45.390861 105.790861,43.6 108,43.6 L108,43.6 L108,43.6 C110.209139,43.6 112,45.390861 112,47.6 Z" id="Shape" fill-opacity="0.2" fill="000000" transform="translate(108.000000, 63.600000) rotate(90.000000) translate(-108.000000, -63.600000) "></path>
            <path d="M106.305118,69.6535898 L106.305118,101.65359 L106.305118,101.65359 C106.305118,103.862729 104.514257,105.65359 102.305118,105.65359 L102.305118,105.65359 L102.305118,105.65359 C100.095979,105.65359 98.3051178,103.862729 98.3051178,101.65359 L98.3051178,69.6535898 L98.3051178,69.6535898 C98.3051178,67.4444508 100.095979,65.6535898 102.305118,65.6535898 L102.305118,65.6535898 L102.305118,65.6535898 C104.514257,65.6535898 106.305118,67.4444508 106.305118,69.6535898 Z" id="Shape" fill-opacity="0.2" fill="000000" transform="translate(102.305118, 85.653590) rotate(120.000000) translate(-102.305118, -85.653590) "></path>
            <path d="M90.3464102,85.9051178 L90.3464102,117.905118 L90.3464102,117.905118 C90.3464102,120.114257 88.5555492,121.905118 86.3464102,121.905118 L86.3464102,121.905118 L86.3464102,121.905118 C84.1372712,121.905118 82.3464102,120.114257 82.3464102,117.905118 L82.3464102,85.9051178 L82.3464102,85.9051178 C82.3464102,83.6959788 84.1372712,81.9051178 86.3464102,81.9051178 L86.3464102,81.9051178 L86.3464102,81.9051178 C88.5555492,81.9051178 90.3464102,83.6959788 90.3464102,85.9051178 Z" id="Shape" fill-opacity="0.25" fill="000000" transform="translate(86.346410, 101.905118) rotate(150.000000) translate(-86.346410, -101.905118) "></path>
            <path d="M68.4,92 L68.4,124 L68.4,124 C68.4,126.209139 66.609139,128 64.4,128 L64.4,128 L64.4,128 C62.190861,128 60.4,126.209139 60.4,124 L60.4,92 L60.4,92 C60.4,89.790861 62.190861,88 64.4,88 L64.4,88 L64.4,88 C66.609139,88 68.4,89.790861 68.4,92 Z" id="Shape" fill-opacity="0.3" fill="000000" transform="translate(64.400000, 108.000000) rotate(180.000000) translate(-64.400000, -108.000000) "></path>
            <path d="M46.3464102,86.3051178 L46.3464102,118.305118 L46.3464102,118.305118 C46.3464102,120.514257 44.5555492,122.305118 42.3464102,122.305118 L42.3464102,122.305118 L42.3464102,122.305118 C40.1372712,122.305118 38.3464102,120.514257 38.3464102,118.305118 L38.3464102,86.3051178 L38.3464102,86.3051178 C38.3464102,84.0959788 40.1372712,82.3051178 42.3464102,82.3051178 L42.3464102,82.3051178 L42.3464102,82.3051178 C44.5555492,82.3051178 46.3464102,84.0959788 46.3464102,86.3051178 Z" id="Shape" fill-opacity="0.4" fill="000000" transform="translate(42.346410, 102.305118) rotate(-150.000000) translate(-42.346410, -102.305118) "></path>
            <path d="M30.0948822,70.3464102 L30.0948822,102.34641 L30.0948822,102.34641 C30.0948822,104.555549 28.3040212,106.34641 26.0948822,106.34641 L26.0948822,106.34641 L26.0948822,106.34641 C23.8857432,106.34641 22.0948822,104.555549 22.0948822,102.34641 L22.0948822,70.3464102 L22.0948822,70.3464102 C22.0948822,68.1372712 23.8857432,66.3464102 26.0948822,66.3464102 L26.0948822,66.3464102 L26.0948822,66.3464102 C28.3040212,66.3464102 30.0948822,68.1372712 30.0948822,70.3464102 Z" id="Shape" fill-opacity="0.65" fill="000000" transform="translate(26.094882, 86.346410) rotate(-120.000000) translate(-26.094882, -86.346410) "></path>
            <path d="M24,48.4 L24,80.4 L24,80.4 C24,82.609139 22.209139,84.4 20,84.4 L20,84.4 L20,84.4 C17.790861,84.4 16,82.609139 16,80.4 L16,48.4 L16,48.4 C16,46.190861 17.790861,44.4 20,44.4 L20,44.4 L20,44.4 C22.209139,44.4 24,46.190861 24,48.4 Z" id="Shape" fill-opacity="0.7" fill="000000" transform="translate(20.000000, 64.400000) rotate(-90.000000) translate(-20.000000, -64.400000) "></path>
            <path d="M29.6948822,26.3464102 L29.6948822,58.3464102 L29.6948822,58.3464102 C29.6948822,60.5555492 27.9040212,62.3464102 25.6948822,62.3464102 L25.6948822,62.3464102 L25.6948822,62.3464102 C23.4857432,62.3464102 21.6948822,60.5555492 21.6948822,58.3464102 L21.6948822,26.3464102 L21.6948822,26.3464102 C21.6948822,24.1372712 23.4857432,22.3464102 25.6948822,22.3464102 L25.6948822,22.3464102 L25.6948822,22.3464102 C27.9040212,22.3464102 29.6948822,24.1372712 29.6948822,26.3464102 Z" id="Shape" fill-opacity="0.85" fill="000000" transform="translate(25.694882, 42.346410) rotate(-60.000000) translate(-25.694882, -42.346410) "></path>
            <path d="M45.6535898,10.0948822 L45.6535898,42.0948822 L45.6535898,42.0948822 C45.6535898,44.3040212 43.8627288,46.0948822 41.6535898,46.0948822 L41.6535898,46.0948822 L41.6535898,46.0948822 C39.4444508,46.0948822 37.6535898,44.3040212 37.6535898,42.0948822 L37.6535898,10.0948822 L37.6535898,10.0948822 C37.6535898,7.88574323 39.4444508,6.09488223 41.6535898,6.09488223 L41.6535898,6.09488223 L41.6535898,6.09488223 C43.8627288,6.09488223 45.6535898,7.88574323 45.6535898,10.0948822 Z" id="Shape" fill-opacity="1.0" fill="000000" transform="translate(41.653590, 26.094882) rotate(-30.000000) translate(-41.653590, -26.094882) "></path>
            <animateTransform attributeName="transform" type="rotate" values="0 64 64;30 64 64;60 64 64;90 64 64;120 64 64;150 64 64;180 64 64;210 64 64;240 64 64;270 64 64;300 64 64;330 64 64" calcMode="discrete" dur="800ms" repeatCount="indefinite"></animateTransform>
        </g>
</svg>